<?xml version="1.0" encoding="utf-8"?>
<svg xmlns="http://www.w3.org/2000/svg" xml:space="preserve" id="Icons" x="0" y="0" version="1.1" viewBox="0 0 48 48">
  <style>
    .st3{fill:none;stroke:#45413c;stroke-linecap:round;stroke-linejoin:round;stroke-miterlimit:10}
  </style>
  <g id="XMLID_15641_">
    <path id="XMLID_15654_" fill="#00b8f0" d="M40.1 30.1H7.2c-.7 0-1.2-.6-1.2-1.2V13.8c0-4.7 3.8-8.5 8.5-8.5h18.3c4.7 0 8.5 3.8 8.5 8.5v15.1c.1.7-.5 1.2-1.2 1.2z"/>
    <path id="XMLID_15653_" fill="#4acfff" d="M32.9 5.2H14.5C9.8 5.2 6 9.1 6 13.8v3.7C6 12.8 9.8 9 14.5 9h18.3c4.7 0 8.5 3.8 8.5 8.5v-3.7c.1-4.7-3.7-8.6-8.4-8.6z"/>
    <path id="XMLID_15652_" d="M40.1 30.1H7.2c-.7 0-1.2-.6-1.2-1.2V13.8c0-4.7 3.8-8.5 8.5-8.5h18.3c4.7 0 8.5 3.8 8.5 8.5v15.1c.1.7-.5 1.2-1.2 1.2z" class="st3"/>
    <ellipse id="XMLID_15651_" cx="25.4" cy="44.1" fill="#45413c" opacity=".15" rx="14.4" ry="1.9"/>
    <path fill="#c0dceb" d="M14.5 5.2C9.8 5.2 6 9.1 6 13.8v15.1c0 .7.6 1.2 1.2 1.2h14.6c.7 0 1.2-.6 1.2-1.2V13.8c.1-4.7-3.8-8.6-8.5-8.6z"/>
    <path id="XMLID_15650_" fill="#8ca4b8" d="M14.5 5.2c-2.2 0-4.1.8-5.6 2.1.4-.1.9-.1 1.4-.1 4.7 0 8.5 3.8 8.5 8.5V30h3c.7 0 1.2-.6 1.2-1.2v-15c.1-4.7-3.7-8.6-8.5-8.6z"/>
    <path d="M14.5 5.2C9.8 5.2 6 9.1 6 13.8v15.1c0 .7.6 1.2 1.2 1.2h14.6c.7 0 1.2-.6 1.2-1.2V13.8c.1-4.7-3.8-8.6-8.5-8.6z" class="st3"/>
    <path fill="#ff6242" stroke="#45413c" stroke-linecap="round" stroke-linejoin="round" stroke-miterlimit="10" d="M31 1.4h-3.3c-.7 0-1.2.6-1.2 1.2v15.7c0 1 .8 1.9 1.9 1.9 1 0 1.9-.8 1.9-1.9V8.6h.7c.7 0 1.2-.6 1.2-1.2V2.6c.1-.7-.5-1.2-1.2-1.2z"/>
    <path id="XMLID_15649_" fill="#debb7e" d="M26.8 44h-3.4c-.7 0-1.2-.6-1.2-1.2V30.1h5.9v12.6c0 .7-.6 1.3-1.3 1.3z"/>
    <path id="XMLID_15648_" fill="#b89558" d="M22.2 30.1h5.9v3.1h-5.9z"/>
    <path id="XMLID_15647_" d="M26.8 44h-3.4c-.7 0-1.2-.6-1.2-1.2V30.1h5.9v12.6c0 .7-.6 1.3-1.3 1.3z" class="st3"/>
    <path id="XMLID_15646_" fill="#fff" d="M11.2 13.3c-.7 0-1.2.6-1.2 1.2v14.3c0 .7.6 1.2 1.2 1.2h10.6c.7 0 1.2-.6 1.2-1.2V13.4H11.2z"/>
    <path id="XMLID_15645_" fill="#f0f0f0" d="M23.1 13.3h-3.4v15.5c0 .7-.6 1.2-1.2 1.2h3.4c.7 0 1.2-.6 1.2-1.2V13.3z"/>
    <path id="XMLID_15644_" d="M11.2 13.3c-.7 0-1.2.6-1.2 1.2v14.3c0 .7.6 1.2 1.2 1.2h10.6c.7 0 1.2-.6 1.2-1.2V13.4H11.2z" class="st3"/>
    <path id="XMLID_15643_" d="m10.2 13.8 12.9 9.5" class="st3"/>
    <path id="XMLID_15642_" d="m10.2 29.7 10.1-8.5" class="st3"/>
  </g>
</svg>